<svg width="179" height="9" viewBox="0 0 179 9" fill="none" xmlns="http://www.w3.org/2000/svg">
<path d="M73.2058 2.59131C81.9686 2.48666 90.7327 2.38809 99.5383 2.24886C102.764 2.19309 106.188 2.00599 109.513 1.94181L126.414 1.74563C131.98 1.71591 137.547 1.69227 143.18 1.62282C148.187 1.56042 153.434 1.33211 158.618 1.16175C161.978 1.02654 165.402 0.839441 168.716 0.726653C171.939 0.678531 175.001 0.721007 177.88 0.853773C179.658 0.949481 178.437 1.57947 175.523 2.38805C171.561 3.47044 167.359 4.27766 163.469 4.70368C149.283 5.54884 135.699 5.98869 122.836 6.01931C115.293 5.958 106.432 6.42668 98.2419 6.62476C89.2481 6.82335 80.3199 6.97614 71.3943 7.14108L54.8924 7.44238C46.478 7.65028 38.391 7.62919 29.8885 7.89411C23.4189 8.04117 16.5149 8.50368 9.97459 8.67224C8.55197 8.71016 7.08396 8.77051 5.70414 8.77385C0.980723 8.63577 -0.180089 8.25544 0.308537 7.48997C0.338626 7.33029 0.428289 7.15993 0.57612 6.98153C1.1862 6.43149 4.12004 5.94908 8.39741 5.52829C21.4254 4.24302 33.7942 3.74706 46.3258 3.1908C55.6924 2.74079 64.4857 2.66137 73.5021 2.45157L73.2058 2.59131Z" fill="#A129FF"/>
</svg>
