<svg width="32" height="32" viewBox="0 0 32 32" fill="none" xmlns="http://www.w3.org/2000/svg">
<path d="M24.5715 2.28564C25.9881 2.28564 27.1995 2.78862 28.2054 3.79457C29.2114 4.80053 29.7143 6.01184 29.7143 7.4285V24.5714C29.7143 25.988 29.2114 27.1993 28.2054 28.2053C27.1995 29.2112 25.9881 29.7142 24.5715 29.7142H21.2143V19.0892H24.7679L25.3036 14.9464H21.2143V12.3035C21.2143 11.6368 21.3542 11.1368 21.634 10.8035C21.9137 10.4702 22.4584 10.3035 23.2679 10.3035L25.4465 10.2856V6.58922C24.6965 6.48207 23.637 6.4285 22.2679 6.4285C20.6489 6.4285 19.3542 6.90469 18.384 7.85707C17.4137 8.80945 16.9286 10.1547 16.9286 11.8928V14.9464H13.3572V19.0892H16.9286V29.7142H7.42862C6.01196 29.7142 4.80065 29.2112 3.7947 28.2053C2.78874 27.1993 2.28577 25.988 2.28577 24.5714V7.4285C2.28577 6.01184 2.78874 4.80053 3.7947 3.79457C4.80065 2.78862 6.01196 2.28564 7.42862 2.28564H24.5715Z" fill="white"/>
</svg>
