<svg width="32" height="32" viewBox="0 0 32 32" fill="none" xmlns="http://www.w3.org/2000/svg">
<path d="M27.2934 2.66669H4.7067C4.45281 2.66316 4.20071 2.70969 3.96479 2.8036C3.72888 2.89752 3.51378 3.03698 3.33177 3.21404C3.14976 3.39109 3.00441 3.60227 2.90403 3.8355C2.80364 4.06874 2.75018 4.31946 2.7467 4.57336V27.4267C2.75018 27.6806 2.80364 27.9313 2.90403 28.1645C3.00441 28.3978 3.14976 28.609 3.33177 28.786C3.51378 28.9631 3.72888 29.1025 3.96479 29.1964C4.20071 29.2904 4.45281 29.3369 4.7067 29.3334H27.2934C27.5473 29.3369 27.7994 29.2904 28.0353 29.1964C28.2712 29.1025 28.4863 28.9631 28.6683 28.786C28.8503 28.609 28.9957 28.3978 29.0961 28.1645C29.1964 27.9313 29.2499 27.6806 29.2534 27.4267V4.57336C29.2499 4.31946 29.1964 4.06874 29.0961 3.8355C28.9957 3.60227 28.8503 3.39109 28.6683 3.21404C28.4863 3.03698 28.2712 2.89752 28.0353 2.8036C27.7994 2.70969 27.5473 2.66316 27.2934 2.66669ZM10.7867 24.9867H6.7867V12.9867H10.7867V24.9867ZM8.7867 11.3067C8.23505 11.3067 7.706 11.0875 7.31592 10.6975C6.92585 10.3074 6.7067 9.77834 6.7067 9.22669C6.7067 8.67504 6.92585 8.14598 7.31592 7.75591C7.706 7.36583 8.23505 7.14669 8.7867 7.14669C9.07963 7.11347 9.37627 7.1425 9.6572 7.23187C9.93814 7.32124 10.197 7.46894 10.4169 7.66531C10.6368 7.86167 10.8127 8.10226 10.9332 8.37133C11.0537 8.6404 11.1159 8.93189 11.1159 9.22669C11.1159 9.5215 11.0537 9.81298 10.9332 10.082C10.8127 10.3511 10.6368 10.5917 10.4169 10.7881C10.197 10.9844 9.93814 11.1321 9.6572 11.2215C9.37627 11.3109 9.07963 11.3399 8.7867 11.3067ZM25.2134 24.9867H21.2134V18.5467C21.2134 16.9334 20.64 15.88 19.1867 15.88C18.7369 15.8833 18.299 16.0244 17.9318 16.2843C17.5647 16.5441 17.286 16.9103 17.1334 17.3334C17.029 17.6467 16.9838 17.9768 17 18.3067V24.9734H13C13 24.9734 13 14.0667 13 12.9734H17V14.6667C17.3634 14.0362 17.8919 13.5167 18.5286 13.1643C19.1653 12.8119 19.8861 12.6398 20.6134 12.6667C23.28 12.6667 25.2134 14.3867 25.2134 18.08V24.9867Z" fill="white"/>
</svg>
