<svg width="107" height="20" viewBox="0 0 107 20" fill="none" xmlns="http://www.w3.org/2000/svg">
<path d="M7.256 18H0.944V0.456H7.088C12.272 0.456 15.848 4.032 15.848 9.264C15.848 14.424 12.344 18 7.256 18ZM6.8 3.288H4.016V15.168H6.968C10.472 15.168 12.608 12.912 12.608 9.264C12.608 5.544 10.424 3.288 6.8 3.288ZM21.8056 18.312C19.2856 18.312 17.7496 16.848 17.7496 14.616C17.7496 12.432 19.3336 11.064 22.1416 10.848L25.6936 10.584V10.32C25.6936 8.712 24.7336 8.064 23.2456 8.064C21.5176 8.064 20.5576 8.784 20.5576 10.032H18.0616C18.0616 7.464 20.1736 5.784 23.3896 5.784C26.5816 5.784 28.5496 7.512 28.5496 10.8V18H25.9816L25.7656 16.248C25.2616 17.472 23.6536 18.312 21.8056 18.312ZM22.7656 16.104C24.5656 16.104 25.7176 15.024 25.7176 13.2V12.576L23.2456 12.768C21.4216 12.936 20.7256 13.536 20.7256 14.496C20.7256 15.576 21.4456 16.104 22.7656 16.104ZM34.3173 18L29.6133 6.144H32.7333L34.7973 11.592C35.3013 13.008 35.7093 14.232 35.8533 14.88C36.0213 14.136 36.4533 12.888 36.9573 11.592L39.1173 6.144H42.1413L37.1973 18H34.3173ZM45.2885 3.768C44.2805 3.768 43.4885 2.976 43.4885 1.992C43.4885 1.008 44.2805 0.24 45.2885 0.24C46.2485 0.24 47.0405 1.008 47.0405 1.992C47.0405 2.976 46.2485 3.768 45.2885 3.768ZM43.8245 18V6.144H46.7525V18H43.8245ZM54.6496 18.312C51.2176 18.312 49.0816 15.792 49.0816 12.12C49.0816 8.424 51.2416 5.784 54.8176 5.784C56.4736 5.784 57.9376 6.48 58.6816 7.656V0.144H61.5856V18H58.8976L58.7056 16.152C57.9856 17.52 56.4496 18.312 54.6496 18.312ZM55.2976 15.624C57.3376 15.624 58.6576 14.16 58.6576 12.024C58.6576 9.888 57.3376 8.4 55.2976 8.4C53.2576 8.4 52.0096 9.912 52.0096 12.024C52.0096 14.136 53.2576 15.624 55.2976 15.624ZM85.3138 19.32L83.3938 17.16C82.1458 17.88 80.6578 18.288 79.0018 18.288C73.9858 18.288 70.5298 14.568 70.5298 9.216C70.5298 3.888 74.0098 0.144 79.0258 0.144C84.0418 0.144 87.5458 3.864 87.5458 9.216C87.5458 11.736 86.7778 13.896 85.4098 15.48L87.2818 17.568L85.3138 19.32ZM84.3058 9.216C84.3058 5.472 82.2418 3.096 79.0258 3.096C75.8098 3.096 73.7458 5.472 73.7458 9.216C73.7458 12.96 75.8098 15.336 79.0258 15.336C79.8898 15.336 80.6578 15.168 81.3538 14.832L79.0258 12.216L80.9698 10.464L83.2978 13.08C83.9458 12.072 84.3058 10.752 84.3058 9.216ZM91.4369 3.768C90.4289 3.768 89.6369 2.976 89.6369 1.992C89.6369 1.008 90.4289 0.24 91.4369 0.24C92.3969 0.24 93.1889 1.008 93.1889 1.992C93.1889 2.976 92.3969 3.768 91.4369 3.768ZM89.9729 18V6.144H92.9009V18H89.9729ZM103.24 6.144H106.168V18H103.456L103.24 16.416C102.52 17.544 100.984 18.312 99.3995 18.312C96.6635 18.312 95.0555 16.464 95.0555 13.56V6.144H97.9835V12.528C97.9835 14.784 98.8715 15.696 100.504 15.696C102.352 15.696 103.24 14.616 103.24 12.36V6.144Z" fill="#1C1C1C"/>
</svg>
